<svg width="16" height="16" viewBox="0 0 16 16" fill="none" xmlns="http://www.w3.org/2000/svg">
<path fill-rule="evenodd" clip-rule="evenodd" d="M14.9336 7.99998C14.9336 4.17081 11.8294 1.06665 8.00023 1.06665H8.00022H8.00021L5.89153 2.73215C6.42786 1.69678 7.1481 1.06788 7.99772 1.06665C4.1697 1.06801 1.06689 4.17164 1.06689 7.99998C1.06689 11.8292 4.17105 14.9333 8.00023 14.9333C11.8294 14.9333 14.9336 11.8292 14.9336 7.99998ZM2.73244 5.89127C3.30814 4.45441 4.45467 3.30786 5.89153 2.73215C5.5544 3.38296 5.28994 4.19438 5.1117 5.11147C4.19464 5.28971 3.38324 5.55416 2.73244 5.89127ZM10.1089 2.73207C10.446 3.3829 10.7105 4.19434 10.8887 5.11146C11.8059 5.28972 12.6173 5.5542 13.2682 5.89135C12.6925 4.45439 11.5458 3.30777 10.1089 2.73207ZM2.32756 7.99998C2.32756 7.43319 3.35409 6.81818 4.92086 6.44831C4.87331 6.9479 4.8487 7.46739 4.8487 7.99998C4.8487 8.53258 4.87331 9.05206 4.92086 9.55164C3.35409 9.18178 2.32756 8.56677 2.32756 7.99998ZM11.1517 7.99998C11.1517 8.53259 11.1271 9.05209 11.0796 9.55168C12.6464 9.18182 13.673 8.56679 13.673 7.99998C13.673 7.43317 12.6464 6.81813 11.0796 6.44827C11.1271 6.94787 11.1517 7.46737 11.1517 7.99998ZM2.73243 10.1087C3.38324 10.4458 4.19464 10.7103 5.1117 10.8885C5.28994 11.8056 5.5544 12.617 5.89152 13.2678C4.45467 12.6921 3.30813 11.5456 2.73243 10.1087ZM10.8887 10.8885C10.7105 11.8056 10.446 12.6171 10.1089 13.2679C11.5458 12.6922 12.6925 11.5456 13.2682 10.1086C12.6173 10.4458 11.8059 10.7102 10.8887 10.8885ZM6.10934 7.99998C6.10934 7.37582 6.14848 6.77701 6.21814 6.21788C6.77728 6.14822 7.37609 6.10907 8.00025 6.10907C8.62441 6.10907 9.22322 6.14822 9.78235 6.21788C9.85201 6.77701 9.89115 7.37582 9.89115 7.99998C9.89115 8.62414 9.85201 9.22294 9.78235 9.78208C9.22322 9.85173 8.62441 9.89088 8.00025 9.89088C7.37609 9.89088 6.77728 9.85173 6.21814 9.78208C6.14848 9.22294 6.10934 8.62414 6.10934 7.99998ZM6.44856 11.0793C6.81842 12.6461 7.43345 13.6727 8.00025 13.6727C8.56705 13.6727 9.18207 12.6461 9.55193 11.0793C9.05234 11.1269 8.53285 11.1515 8.00025 11.1515C7.46765 11.1515 6.94815 11.1269 6.44856 11.0793ZM8.00025 2.32726C7.43345 2.32726 6.81843 3.35382 6.44856 4.92062C6.94815 4.87308 7.46765 4.84846 8.00025 4.84846C8.53285 4.84846 9.05234 4.87308 9.55193 4.92062C9.18207 3.35382 8.56705 2.32726 8.00025 2.32726Z" fill="#58585B"/>
</svg>
