<svg width="361" height="48" viewBox="0 0 361 48" fill="none" xmlns="http://www.w3.org/2000/svg">
<path d="M59.328 24.83V31.694H56V13H62.552C64.528 13 66.062 13.4593 67.154 14.378C68.246 15.2967 68.792 16.6313 68.792 18.382C68.792 20.3407 68.194 21.9093 66.998 23.088C65.8193 24.2493 64.2247 24.83 62.214 24.83H59.328ZM59.328 22.256H61.85C63.0113 22.256 63.8867 21.9527 64.476 21.346C65.0827 20.722 65.386 19.8207 65.386 18.642C65.386 16.5793 64.294 15.548 62.11 15.548H59.328V22.256Z" fill="#004D43"/>
<path d="M78.1069 31.382C77.3096 31.798 76.3822 32.006 75.3249 32.006C74.2676 32.006 73.3489 31.798 72.5689 31.382C71.8062 30.966 71.2169 30.4027 70.8009 29.692C70.3849 28.9813 70.0816 28.2273 69.8909 27.43C69.7002 26.6153 69.6049 25.7487 69.6049 24.83C69.6049 22.698 70.1076 20.956 71.1129 19.604C72.1356 18.252 73.6349 17.576 75.6109 17.576C79.4069 17.576 81.3049 19.916 81.3049 24.596C81.3049 25.5667 81.1922 26.4767 80.9669 27.326C80.7589 28.1753 80.4296 28.964 79.9789 29.692C79.5282 30.4027 78.9042 30.966 78.1069 31.382ZM75.4029 29.432C77.0842 29.432 77.9249 27.8633 77.9249 24.726C77.9249 23.8593 77.8729 23.1227 77.7689 22.516C77.6822 21.9093 77.4482 21.3633 77.0669 20.878C76.7029 20.3927 76.1916 20.15 75.5329 20.15C73.8169 20.15 72.9589 21.7187 72.9589 24.856C72.9589 27.9067 73.7736 29.432 75.4029 29.432Z" fill="#004D43"/>
<path d="M90.1514 17.576C91.1047 17.576 91.9107 18.0527 92.5694 19.006L91.1134 21.346C90.6974 20.826 90.2034 20.566 89.6314 20.566C88.7647 20.566 87.9501 20.9647 87.1874 21.762V31.694H83.9114V17.836H86.8234L86.9534 19.292C87.9241 18.148 88.9901 17.576 90.1514 17.576Z" fill="#004D43"/>
<path d="M101.277 20.176H98.1568V27.274C98.1568 27.69 98.1741 28.028 98.2088 28.288C98.2608 28.548 98.3821 28.782 98.5728 28.99C98.7808 29.198 99.0668 29.302 99.4308 29.302C99.8988 29.302 100.488 29.1373 101.199 28.808L101.563 31.304C100.609 31.7547 99.5868 31.98 98.4948 31.98C96.0854 31.98 94.8808 30.7147 94.8808 28.184V20.176H93.0868V17.836H94.8808V15.522L98.1568 13.936V17.836H101.277V20.176Z" fill="#004D43"/>
<path d="M104.28 20.618L103.89 18.2C105.138 17.784 106.568 17.576 108.18 17.576C110.087 17.576 111.439 18.0093 112.236 18.876C113.034 19.7253 113.432 21.2853 113.432 23.556V28.444C113.432 29.172 113.692 29.536 114.212 29.536C114.455 29.536 114.732 29.4753 115.044 29.354L115.278 31.538C114.62 31.8153 113.883 31.954 113.068 31.954C111.82 31.954 111.058 31.4253 110.78 30.368C109.654 31.4253 108.345 31.954 106.854 31.954C105.52 31.954 104.497 31.5467 103.786 30.732C103.093 29.9173 102.746 28.8773 102.746 27.612C102.746 24.4053 104.532 22.802 108.102 22.802C108.813 22.802 109.55 22.8887 110.312 23.062V22.464C110.312 20.852 109.402 20.046 107.582 20.046C106.594 20.046 105.494 20.2367 104.28 20.618ZM110.312 28.314V25.116C109.723 24.908 109.168 24.804 108.648 24.804C106.863 24.804 105.97 25.6447 105.97 27.326C105.97 28.002 106.126 28.5393 106.438 28.938C106.75 29.3193 107.21 29.51 107.816 29.51C108.752 29.51 109.584 29.1113 110.312 28.314Z" fill="#004D43"/>
<path d="M116.8 27.976V13H120.05V27.508C120.05 28.132 120.145 28.5827 120.336 28.86C120.544 29.1373 120.882 29.276 121.35 29.276C121.887 29.276 122.477 29.12 123.118 28.808L123.508 31.304C122.572 31.7547 121.549 31.98 120.44 31.98C119.088 31.98 118.143 31.642 117.606 30.966C117.069 30.2727 116.8 29.276 116.8 27.976Z" fill="#004D43"/>
<path d="M132.025 26.1462H129.061V31.6942H127.75V18.0332H132.272C133.602 18.0332 134.634 18.3435 135.369 18.9642C136.104 19.5722 136.471 20.4715 136.471 21.6622C136.471 23.0302 136.059 24.1195 135.236 24.9302C134.425 25.7409 133.355 26.1462 132.025 26.1462ZM129.061 24.9872H131.911C132.95 24.9872 133.741 24.7212 134.286 24.1892C134.843 23.6445 135.122 22.8655 135.122 21.8522C135.122 20.8895 134.869 20.2119 134.362 19.8192C133.868 19.4139 133.102 19.2112 132.063 19.2112H129.061V24.9872Z" fill="#004D43"/>
<path d="M144.8 26.8112H139.005C139.005 29.4712 139.955 30.8012 141.855 30.8012C142.729 30.8012 143.622 30.5605 144.534 30.0792L144.648 31.2192C143.8 31.6879 142.818 31.9222 141.703 31.9222C139.031 31.9222 137.694 30.1425 137.694 26.5832C137.694 24.8225 138.03 23.5305 138.701 22.7072C139.373 21.8712 140.297 21.4532 141.475 21.4532C142.628 21.4532 143.47 21.8522 144.002 22.6502C144.534 23.4355 144.8 24.6009 144.8 26.1462V26.8112ZM143.489 25.8042C143.489 24.7402 143.306 23.9359 142.938 23.3912C142.584 22.8339 142.071 22.5552 141.399 22.5552C140.627 22.5552 140.038 22.8845 139.632 23.5432C139.227 24.1892 139.024 24.9429 139.024 25.8042H143.489Z" fill="#004D43"/>
<path d="M151.935 21.4532C153.442 21.4532 154.323 22.1119 154.576 23.4292C154.614 23.6445 154.633 24.0562 154.633 24.6642V31.6942H153.379V24.8352C153.379 24.3919 153.36 24.0499 153.322 23.8092C153.17 23.0112 152.587 22.6122 151.574 22.6122C150.649 22.6122 149.674 23.0999 148.648 24.0752V31.6942H147.375V21.6622H148.648V22.9162C149.725 21.9409 150.82 21.4532 151.935 21.4532Z" fill="#004D43"/>
<path d="M160.993 21.4532C161.715 21.4532 162.506 21.7445 163.368 22.3272V21.6622H164.641V31.4092C164.641 31.9539 164.615 32.4289 164.565 32.8342C164.514 33.2522 164.406 33.6575 164.242 34.0502C164.09 34.4429 163.881 34.7659 163.615 35.0192C163.349 35.2725 162.994 35.4752 162.551 35.6272C162.107 35.7792 161.582 35.8552 160.974 35.8552C159.77 35.8552 158.719 35.5955 157.82 35.0762L158.048 33.8792C158.402 34.0945 158.865 34.2909 159.435 34.4682C160.017 34.6582 160.575 34.7532 161.107 34.7532C161.601 34.7532 162.006 34.6582 162.323 34.4682C162.652 34.2909 162.893 34.0249 163.045 33.6702C163.197 33.3155 163.298 32.9482 163.349 32.5682C163.412 32.2009 163.444 31.7575 163.444 31.2382V30.6492C162.595 31.4725 161.696 31.8842 160.746 31.8842C159.694 31.8842 158.858 31.4599 158.238 30.6112C157.617 29.7625 157.307 28.5022 157.307 26.8302C157.307 26.1589 157.37 25.5255 157.497 24.9302C157.636 24.3222 157.839 23.7522 158.105 23.2202C158.383 22.6755 158.77 22.2449 159.264 21.9282C159.758 21.6115 160.334 21.4532 160.993 21.4532ZM158.637 26.9062C158.637 28.1349 158.852 29.0849 159.283 29.7562C159.713 30.4275 160.277 30.7632 160.974 30.7632C161.848 30.7632 162.652 30.3325 163.387 29.4712V23.5812C162.538 22.9225 161.778 22.5932 161.107 22.5932C159.46 22.5932 158.637 24.0309 158.637 26.9062Z" fill="#004D43"/>
<path d="M168.105 22.9162L167.972 21.7952C168.795 21.5672 169.752 21.4532 170.841 21.4532C172.944 21.4532 173.995 22.4919 173.995 24.5692V29.9462C173.995 30.2502 174.046 30.4655 174.147 30.5922C174.261 30.7189 174.445 30.7822 174.698 30.7822C174.901 30.7822 175.173 30.7189 175.515 30.5922L175.629 31.6372C175.11 31.8019 174.692 31.8842 174.375 31.8842C173.932 31.8842 173.577 31.7702 173.311 31.5422C173.045 31.3015 172.893 31.0102 172.855 30.6682C171.943 31.4789 170.98 31.8842 169.967 31.8842C169.042 31.8842 168.339 31.5929 167.858 31.0102C167.377 30.4275 167.136 29.6865 167.136 28.7872C167.136 27.6092 167.472 26.7415 168.143 26.1842C168.827 25.6142 169.777 25.3292 170.993 25.3292C171.601 25.3292 172.184 25.3925 172.741 25.5192V24.7972C172.741 24.0119 172.57 23.4419 172.228 23.0872C171.886 22.7325 171.291 22.5552 170.442 22.5552C169.644 22.5552 168.865 22.6755 168.105 22.9162ZM172.741 29.6612L172.76 26.5072C172.203 26.3679 171.683 26.2982 171.202 26.2982C170.29 26.2982 169.606 26.4882 169.15 26.8682C168.707 27.2482 168.485 27.8752 168.485 28.7492C168.485 29.3319 168.631 29.8132 168.922 30.1932C169.226 30.5732 169.669 30.7632 170.252 30.7632C171.126 30.7632 171.956 30.3959 172.741 29.6612Z" fill="#004D43"/>
<path d="M178.855 21.6622V33.1002C178.855 34.0122 178.665 34.6962 178.285 35.1522C177.918 35.6209 177.322 35.8552 176.499 35.8552C175.828 35.8552 175.232 35.7095 174.713 35.4182L174.941 34.2402C175.46 34.5695 175.999 34.7342 176.556 34.7342C176.936 34.7342 177.202 34.6012 177.354 34.3352C177.506 34.0692 177.582 33.6005 177.582 32.9292V21.6622H178.855ZM177.373 19.0782C177.373 18.8122 177.449 18.6095 177.601 18.4702C177.753 18.3182 177.949 18.2422 178.19 18.2422C178.747 18.2422 179.026 18.5272 179.026 19.0972C179.026 19.3759 178.95 19.5975 178.798 19.7622C178.646 19.9142 178.443 19.9902 178.19 19.9902C177.949 19.9902 177.753 19.9079 177.601 19.7432C177.449 19.5785 177.373 19.3569 177.373 19.0782Z" fill="#004D43"/>
<path d="M184.655 31.8842C183.135 31.8842 182.261 31.2319 182.033 29.9272C181.983 29.6359 181.957 29.2242 181.957 28.6922V21.8332L183.211 21.6622V28.5212C183.211 29.0025 183.237 29.3445 183.287 29.5472C183.414 30.3579 183.971 30.7632 184.959 30.7632C185.897 30.7632 186.891 30.2692 187.942 29.2812V21.6622H189.234V31.6942H187.942V30.4592C186.84 31.4092 185.745 31.8842 184.655 31.8842Z" fill="#004D43"/>
<path d="M192.69 22.9162L192.557 21.7952C193.38 21.5672 194.337 21.4532 195.426 21.4532C197.529 21.4532 198.58 22.4919 198.58 24.5692V29.9462C198.58 30.2502 198.631 30.4655 198.732 30.5922C198.846 30.7189 199.03 30.7822 199.283 30.7822C199.486 30.7822 199.758 30.7189 200.1 30.5922L200.214 31.6372C199.695 31.8019 199.277 31.8842 198.96 31.8842C198.517 31.8842 198.162 31.7702 197.896 31.5422C197.63 31.3015 197.478 31.0102 197.44 30.6682C196.528 31.4789 195.565 31.8842 194.552 31.8842C193.627 31.8842 192.924 31.5929 192.443 31.0102C191.962 30.4275 191.721 29.6865 191.721 28.7872C191.721 27.6092 192.057 26.7415 192.728 26.1842C193.412 25.6142 194.362 25.3292 195.578 25.3292C196.186 25.3292 196.769 25.3925 197.326 25.5192V24.7972C197.326 24.0119 197.155 23.4419 196.813 23.0872C196.471 22.7325 195.876 22.5552 195.027 22.5552C194.229 22.5552 193.45 22.6755 192.69 22.9162ZM197.326 29.6612L197.345 26.5072C196.788 26.3679 196.268 26.2982 195.787 26.2982C194.875 26.2982 194.191 26.4882 193.735 26.8682C193.292 27.2482 193.07 27.8752 193.07 28.7492C193.07 29.3319 193.216 29.8132 193.507 30.1932C193.811 30.5732 194.254 30.7632 194.837 30.7632C195.711 30.7632 196.541 30.3959 197.326 29.6612Z" fill="#004D43"/>
<path d="M206.727 21.4532C208.234 21.4532 209.115 22.1119 209.368 23.4292C209.406 23.6445 209.425 24.0562 209.425 24.6642V31.6942H208.171V24.8352C208.171 24.3919 208.152 24.0499 208.114 23.8092C207.962 23.0112 207.379 22.6122 206.366 22.6122C205.441 22.6122 204.466 23.0999 203.44 24.0752V31.6942H202.167V21.6622H203.44V22.9162C204.517 21.9409 205.612 21.4532 206.727 21.4532Z" fill="#004D43"/>
<path d="M220.025 26.1462H217.061V31.6942H215.75V18.0332H220.272C221.602 18.0332 222.634 18.3435 223.369 18.9642C224.104 19.5722 224.471 20.4715 224.471 21.6622C224.471 23.0302 224.059 24.1195 223.236 24.9302C222.425 25.7409 221.355 26.1462 220.025 26.1462ZM217.061 24.9872H219.911C220.95 24.9872 221.741 24.7212 222.286 24.1892C222.843 23.6445 223.122 22.8655 223.122 21.8522C223.122 20.8895 222.869 20.2119 222.362 19.8192C221.868 19.4139 221.102 19.2112 220.063 19.2112H217.061V24.9872Z" fill="#004D43"/>
<path d="M230.005 21.4532C230.917 21.4532 231.557 21.9725 231.924 23.0112L230.879 23.5812C230.727 23.2519 230.569 23.0175 230.404 22.8782C230.239 22.7262 229.999 22.6502 229.682 22.6502C229.087 22.6502 228.409 23.0872 227.649 23.9612V31.6942H226.376V21.6622H227.573V22.7832C228.384 21.8965 229.194 21.4532 230.005 21.4532Z" fill="#004D43"/>
<path d="M236.618 31.9222C235.909 31.9222 235.294 31.7702 234.775 31.4662C234.268 31.1622 233.882 30.7442 233.616 30.2122C233.35 29.6802 233.16 29.1355 233.046 28.5782C232.932 28.0082 232.875 27.3939 232.875 26.7352C232.875 25.1899 233.204 23.9232 233.863 22.9352C234.534 21.9472 235.529 21.4532 236.846 21.4532C239.303 21.4532 240.532 23.1505 240.532 26.5452C240.532 27.2292 240.462 27.8752 240.323 28.4832C240.184 29.0912 239.968 29.6612 239.677 30.1932C239.386 30.7252 238.974 31.1495 238.442 31.4662C237.923 31.7702 237.315 31.9222 236.618 31.9222ZM236.656 30.8202C237.163 30.8202 237.593 30.6935 237.948 30.4402C238.303 30.1869 238.562 29.8449 238.727 29.4142C238.904 28.9835 239.031 28.5402 239.107 28.0842C239.183 27.6282 239.221 27.1405 239.221 26.6212C239.221 23.9232 238.41 22.5742 236.789 22.5742C236.27 22.5742 235.826 22.7199 235.459 23.0112C235.104 23.2899 234.838 23.6635 234.661 24.1322C234.484 24.5882 234.357 25.0315 234.281 25.4622C234.218 25.8929 234.186 26.3299 234.186 26.7732C234.186 27.5079 234.249 28.1602 234.376 28.7302C234.515 29.3002 234.775 29.7942 235.155 30.2122C235.548 30.6175 236.048 30.8202 236.656 30.8202Z" fill="#004D43"/>
<path d="M246.302 21.4532C247.024 21.4532 247.816 21.7445 248.677 22.3272V18.0332H249.95V31.6942H248.753V30.6492C247.904 31.4725 247.005 31.8842 246.055 31.8842C245.004 31.8842 244.168 31.4599 243.547 30.6112C242.926 29.7625 242.616 28.5022 242.616 26.8302C242.616 26.1589 242.679 25.5255 242.806 24.9302C242.945 24.3222 243.148 23.7522 243.414 23.2202C243.693 22.6755 244.079 22.2449 244.573 21.9282C245.067 21.6115 245.643 21.4532 246.302 21.4532ZM243.946 26.9062C243.946 28.1349 244.161 29.0849 244.592 29.7562C245.023 30.4275 245.586 30.7632 246.283 30.7632C247.157 30.7632 247.961 30.3325 248.696 29.4712V23.5812C247.847 22.9225 247.087 22.5932 246.416 22.5932C244.769 22.5932 243.946 24.0309 243.946 26.9062Z" fill="#004D43"/>
<path d="M255.771 31.8842C254.251 31.8842 253.377 31.2319 253.149 29.9272C253.098 29.6359 253.073 29.2242 253.073 28.6922V21.8332L254.327 21.6622V28.5212C254.327 29.0025 254.352 29.3445 254.403 29.5472C254.529 30.3579 255.087 30.7632 256.075 30.7632C257.012 30.7632 258.006 30.2692 259.058 29.2812V21.6622H260.35V31.6942H259.058V30.4592C257.956 31.4092 256.86 31.8842 255.771 31.8842Z" fill="#004D43"/>
<path d="M270.417 21.7952L267.662 25.9372L270.892 31.6942H269.448L266.617 26.6972H264.888V31.6942H263.615V18.0332H264.888V25.5382H266.617L269.163 21.6622L270.417 21.7952Z" fill="#004D43"/>
<path d="M280.025 26.1462H277.061V31.6942H275.75V18.0332H280.272C281.602 18.0332 282.634 18.3435 283.369 18.9642C284.104 19.5722 284.471 20.4715 284.471 21.6622C284.471 23.0302 284.059 24.1195 283.236 24.9302C282.425 25.7409 281.355 26.1462 280.025 26.1462ZM277.061 24.9872H279.911C280.95 24.9872 281.741 24.7212 282.286 24.1892C282.843 23.6445 283.122 22.8655 283.122 21.8522C283.122 20.8895 282.869 20.2119 282.362 19.8192C281.868 19.4139 281.102 19.2112 280.063 19.2112H277.061V24.9872Z" fill="#004D43"/>
<path d="M292.8 26.8112H287.005C287.005 29.4712 287.955 30.8012 289.855 30.8012C290.729 30.8012 291.622 30.5605 292.534 30.0792L292.648 31.2192C291.8 31.6879 290.818 31.9222 289.703 31.9222C287.031 31.9222 285.694 30.1425 285.694 26.5832C285.694 24.8225 286.03 23.5305 286.701 22.7072C287.373 21.8712 288.297 21.4532 289.475 21.4532C290.628 21.4532 291.47 21.8522 292.002 22.6502C292.534 23.4355 292.8 24.6009 292.8 26.1462V26.8112ZM291.489 25.8042C291.489 24.7402 291.306 23.9359 290.938 23.3912C290.584 22.8339 290.071 22.5552 289.399 22.5552C288.627 22.5552 288.038 22.8845 287.632 23.5432C287.227 24.1892 287.024 24.9429 287.024 25.8042H291.489Z" fill="#004D43"/>
<path d="M298.472 21.4532C299.194 21.4532 299.986 21.7445 300.847 22.3272V21.6622H302.12V31.4092C302.12 31.9539 302.095 32.4289 302.044 32.8342C301.993 33.2522 301.886 33.6575 301.721 34.0502C301.569 34.4429 301.36 34.7659 301.094 35.0192C300.828 35.2725 300.473 35.4752 300.03 35.6272C299.587 35.7792 299.061 35.8552 298.453 35.8552C297.25 35.8552 296.198 35.5955 295.299 35.0762L295.527 33.8792C295.882 34.0945 296.344 34.2909 296.914 34.4682C297.497 34.6582 298.054 34.7532 298.586 34.7532C299.08 34.7532 299.485 34.6582 299.802 34.4682C300.131 34.2909 300.372 34.0249 300.524 33.6702C300.676 33.3155 300.777 32.9482 300.828 32.5682C300.891 32.2009 300.923 31.7575 300.923 31.2382V30.6492C300.074 31.4725 299.175 31.8842 298.225 31.8842C297.174 31.8842 296.338 31.4599 295.717 30.6112C295.096 29.7625 294.786 28.5022 294.786 26.8302C294.786 26.1589 294.849 25.5255 294.976 24.9302C295.115 24.3222 295.318 23.7522 295.584 23.2202C295.863 22.6755 296.249 22.2449 296.743 21.9282C297.237 21.6115 297.813 21.4532 298.472 21.4532ZM296.116 26.9062C296.116 28.1349 296.331 29.0849 296.762 29.7562C297.193 30.4275 297.756 30.7632 298.453 30.7632C299.327 30.7632 300.131 30.3325 300.866 29.4712V23.5812C300.017 22.9225 299.257 22.5932 298.586 22.5932C296.939 22.5932 296.116 24.0309 296.116 26.9062Z" fill="#004D43"/>
<path d="M305.585 22.9162L305.452 21.7952C306.275 21.5672 307.231 21.4532 308.321 21.4532C310.423 21.4532 311.475 22.4919 311.475 24.5692V29.9462C311.475 30.2502 311.525 30.4655 311.627 30.5922C311.741 30.7189 311.924 30.7822 312.178 30.7822C312.38 30.7822 312.653 30.7189 312.995 30.5922L313.109 31.6372C312.589 31.8019 312.171 31.8842 311.855 31.8842C311.411 31.8842 311.057 31.7702 310.791 31.5422C310.525 31.3015 310.373 31.0102 310.335 30.6682C309.423 31.4789 308.46 31.8842 307.447 31.8842C306.522 31.8842 305.819 31.5929 305.338 31.0102C304.856 30.4275 304.616 29.6865 304.616 28.7872C304.616 27.6092 304.951 26.7415 305.623 26.1842C306.307 25.6142 307.257 25.3292 308.473 25.3292C309.081 25.3292 309.663 25.3925 310.221 25.5192V24.7972C310.221 24.0119 310.05 23.4419 309.708 23.0872C309.366 22.7325 308.77 22.5552 307.922 22.5552C307.124 22.5552 306.345 22.6755 305.585 22.9162ZM310.221 29.6612L310.24 26.5072C309.682 26.3679 309.163 26.2982 308.682 26.2982C307.77 26.2982 307.086 26.4882 306.63 26.8682C306.186 27.2482 305.965 27.8752 305.965 28.7492C305.965 29.3319 306.11 29.8132 306.402 30.1932C306.706 30.5732 307.149 30.7632 307.732 30.7632C308.606 30.7632 309.435 30.3959 310.221 29.6612Z" fill="#004D43"/>
<path d="M317.973 21.4532C318.695 21.4532 319.487 21.7445 320.348 22.3272V18.0332H321.621V31.6942H320.424V30.6492C319.575 31.4725 318.676 31.8842 317.726 31.8842C316.675 31.8842 315.839 31.4599 315.218 30.6112C314.597 29.7625 314.287 28.5022 314.287 26.8302C314.287 26.1589 314.35 25.5255 314.477 24.9302C314.616 24.3222 314.819 23.7522 315.085 23.2202C315.364 22.6755 315.75 22.2449 316.244 21.9282C316.738 21.6115 317.314 21.4532 317.973 21.4532ZM315.617 26.9062C315.617 28.1349 315.832 29.0849 316.263 29.7562C316.694 30.4275 317.257 30.7632 317.954 30.7632C318.828 30.7632 319.632 30.3325 320.367 29.4712V23.5812C319.518 22.9225 318.758 22.5932 318.087 22.5932C316.44 22.5932 315.617 24.0309 315.617 26.9062Z" fill="#004D43"/>
<path d="M325.086 22.9162L324.953 21.7952C325.776 21.5672 326.732 21.4532 327.822 21.4532C329.924 21.4532 330.976 22.4919 330.976 24.5692V29.9462C330.976 30.2502 331.026 30.4655 331.128 30.5922C331.242 30.7189 331.425 30.7822 331.679 30.7822C331.881 30.7822 332.154 30.7189 332.496 30.5922L332.61 31.6372C332.09 31.8019 331.672 31.8842 331.356 31.8842C330.912 31.8842 330.558 31.7702 330.292 31.5422C330.026 31.3015 329.874 31.0102 329.836 30.6682C328.924 31.4789 327.961 31.8842 326.948 31.8842C326.023 31.8842 325.32 31.5929 324.839 31.0102C324.357 30.4275 324.117 29.6865 324.117 28.7872C324.117 27.6092 324.452 26.7415 325.124 26.1842C325.808 25.6142 326.758 25.3292 327.974 25.3292C328.582 25.3292 329.164 25.3925 329.722 25.5192V24.7972C329.722 24.0119 329.551 23.4419 329.209 23.0872C328.867 22.7325 328.271 22.5552 327.423 22.5552C326.625 22.5552 325.846 22.6755 325.086 22.9162ZM329.722 29.6612L329.741 26.5072C329.183 26.3679 328.664 26.2982 328.183 26.2982C327.271 26.2982 326.587 26.4882 326.131 26.8682C325.687 27.2482 325.466 27.8752 325.466 28.7492C325.466 29.3319 325.611 29.8132 325.903 30.1932C326.207 30.5732 326.65 30.7632 327.233 30.7632C328.107 30.7632 328.936 30.3959 329.722 29.6612Z" fill="#004D43"/>
<path d="M334.563 21.6622H335.817V31.6942H334.563V21.6622ZM334.354 19.0782C334.354 18.8122 334.43 18.6095 334.582 18.4702C334.734 18.3182 334.93 18.2422 335.171 18.2422C335.728 18.2422 336.007 18.5272 336.007 19.0972C336.007 19.3759 335.931 19.5975 335.779 19.7622C335.627 19.9142 335.424 19.9902 335.171 19.9902C334.93 19.9902 334.734 19.9079 334.582 19.7432C334.43 19.5785 334.354 19.3569 334.354 19.0782Z" fill="#004D43"/>
<path d="M339.28 22.9162L339.147 21.7952C339.97 21.5672 340.927 21.4532 342.016 21.4532C344.119 21.4532 345.17 22.4919 345.17 24.5692V29.9462C345.17 30.2502 345.221 30.4655 345.322 30.5922C345.436 30.7189 345.62 30.7822 345.873 30.7822C346.076 30.7822 346.348 30.7189 346.69 30.5922L346.804 31.6372C346.285 31.8019 345.867 31.8842 345.55 31.8842C345.107 31.8842 344.752 31.7702 344.486 31.5422C344.22 31.3015 344.068 31.0102 344.03 30.6682C343.118 31.4789 342.155 31.8842 341.142 31.8842C340.217 31.8842 339.514 31.5929 339.033 31.0102C338.552 30.4275 338.311 29.6865 338.311 28.7872C338.311 27.6092 338.647 26.7415 339.318 26.1842C340.002 25.6142 340.952 25.3292 342.168 25.3292C342.776 25.3292 343.359 25.3925 343.916 25.5192V24.7972C343.916 24.0119 343.745 23.4419 343.403 23.0872C343.061 22.7325 342.466 22.5552 341.617 22.5552C340.819 22.5552 340.04 22.6755 339.28 22.9162ZM343.916 29.6612L343.935 26.5072C343.378 26.3679 342.858 26.2982 342.377 26.2982C341.465 26.2982 340.781 26.4882 340.325 26.8682C339.882 27.2482 339.66 27.8752 339.66 28.7492C339.66 29.3319 339.806 29.8132 340.097 30.1932C340.401 30.5732 340.844 30.7632 341.427 30.7632C342.301 30.7632 343.131 30.3959 343.916 29.6612Z" fill="#004D43"/>
<path d="M353.317 21.4532C354.824 21.4532 355.705 22.1119 355.958 23.4292C355.996 23.6445 356.015 24.0562 356.015 24.6642V31.6942H354.761V24.8352C354.761 24.3919 354.742 24.0499 354.704 23.8092C354.552 23.0112 353.969 22.6122 352.956 22.6122C352.031 22.6122 351.056 23.0999 350.03 24.0752V31.6942H348.757V21.6622H350.03V22.9162C351.107 21.9409 352.202 21.4532 353.317 21.4532Z" fill="#004D43"/>
<path d="M19.7574 8.24264C22.1005 5.89949 25.8995 5.8995 28.2426 8.24264L39.7574 19.7574C42.1005 22.1005 42.1005 25.8995 39.7574 28.2426L28.2426 39.7574C25.8995 42.1005 22.1005 42.1005 19.7574 39.7574L8.24264 28.2426C5.89949 25.8995 5.8995 22.1005 8.24264 19.7574L19.7574 8.24264Z" fill="#00AB4E"/>
<path fill-rule="evenodd" clip-rule="evenodd" d="M25.8938 20.4299C27.9437 19.2464 28.646 16.6253 27.4625 14.5755C26.279 12.5257 23.6579 11.8233 21.6081 13.0068C19.5583 14.1903 18.856 16.8114 20.0394 18.8612L22.4823 23.0924C22.6439 23.3723 22.7247 23.5123 22.688 23.6494C22.6512 23.7866 22.5112 23.8674 22.2313 24.0291L22.1584 24.0711C21.6729 24.3515 21.4301 24.4917 21.2699 24.4195C21.1098 24.3473 21.045 24.0288 20.9155 23.3918C20.8257 22.9497 20.664 22.5143 20.426 22.1021C19.2425 20.0523 16.6214 19.35 14.5716 20.5335C12.5218 21.7169 11.8194 24.338 13.0029 26.3879C14.1864 28.4377 16.8075 29.14 18.8573 27.9565L23.0884 25.5137C23.3684 25.352 23.5084 25.2712 23.6455 25.308C23.7827 25.3448 23.8635 25.4847 24.0252 25.7647L24.0672 25.8375C24.3476 26.3231 24.4878 26.5659 24.4156 26.7261C24.3434 26.8862 24.0249 26.951 23.3878 27.0804C22.9458 27.1703 22.5104 27.332 22.0982 27.57C20.0484 28.7535 19.3461 31.3746 20.5295 33.4244C21.713 35.4742 24.3341 36.1765 26.3839 34.9931C28.4338 33.8096 29.1361 31.1885 27.9526 29.1387L25.5098 24.9075C25.3481 24.6276 25.2673 24.4876 25.3041 24.3504C25.3408 24.2133 25.4808 24.1324 25.7608 23.9708L25.8336 23.9287C26.3192 23.6484 26.562 23.5082 26.7222 23.5804C26.8823 23.6525 26.947 23.9711 27.0765 24.6081C27.1664 25.0502 27.3281 25.4855 27.5661 25.8977C28.7496 27.9476 31.3707 28.6499 33.4205 27.4664C35.4703 26.283 36.1726 23.6619 34.9892 21.612C33.8057 19.5622 31.1846 18.8599 29.1348 20.0433L24.9036 22.4862C24.6237 22.6478 24.4837 22.7286 24.3465 22.6919C24.2093 22.6551 24.1285 22.5152 23.9669 22.2352L23.9248 22.1623C23.6445 21.6768 23.5043 21.434 23.5765 21.2738C23.6486 21.1137 23.9672 21.0489 24.6042 20.9195C25.0463 20.8296 25.4816 20.6679 25.8938 20.4299ZM25.0367 18.9453C23.8068 19.6553 22.2341 19.234 21.5241 18.0041C20.814 16.7742 21.2354 15.2015 22.4653 14.4914C23.6951 13.7813 25.2678 14.2027 25.9779 15.4326C26.688 16.6625 26.2666 18.2352 25.0367 18.9453ZM22.9554 29.0546C24.1853 28.3445 25.7579 28.7659 26.468 29.9958C27.1781 31.2257 26.7567 32.7984 25.5268 33.5085C24.2969 34.2185 22.7242 33.7971 22.0142 32.5672C21.3041 31.3373 21.7255 29.7647 22.9554 29.0546ZM18.0002 26.4719C19.2301 25.7618 19.6514 24.1892 18.9414 22.9593C18.2313 21.7294 16.6586 21.308 15.4287 22.0181C14.1988 22.7282 13.7774 24.3008 14.4875 25.5307C15.1976 26.7606 16.7703 27.182 18.0002 26.4719ZM29.0507 25.0406C28.3406 23.8107 28.762 22.238 29.9919 21.528C31.2218 20.8179 32.7945 21.2393 33.5045 22.4692C34.2146 23.6991 33.7932 25.2717 32.5633 25.9818C31.3334 26.6919 29.7608 26.2705 29.0507 25.0406Z" fill="white"/>
</svg>
